{"title":"Jordin Sparks Ft. 2 Chainz - Double Tap [Music Video] 720p [Sbyk","uid":11892850,"size":46256960,"categoryP":"video","categoryS":"music_videos","magnet":"?xt=urn:btih:4e5d31cecd28cfb6dc9c1397ebd491e06b4eb2fb&amp;dn=Jordin+Sparks+Ft.+2+Chainz+-+Double+Tap+%5BMusic+Video%5D+720p+%5BSbyk&amp;tr=udp%3A%2F%2Ftracker.openbittorrent.com%3A80&amp;tr=udp%3A%2F%2Fopen.demonii.com%3A1337&amp;tr=udp%3A%2F%2Ftracker.coppersurfer.tk%3A6969&amp;tr=udp%3A%2F%2Fexodus.desync.com%3A6969","seeders":2,"leechers":1,"uploader":"Sbyky","files":1,"time":1431034797,"description":"General\nComplete name                            : Jordin Sparks Ft. 2 Chainz - Double Tap [Music Video] 720p [Sbyky].mp4\nFormat                                   : MPEG-4\nFormat profile                           : Base Media\nCodec ID                                 : isom\nFile size                                : 44.1 MiB\nDuration                                 : 3mn 36s\nOverall bit rate mode                    : Variable\nOverall bit rate                         : 1 707 Kbps\nEncoded date                             : UTC 2015-03-05 01:15:47\nTagged date                              : UTC 2015-03-05 01:15:47\n\nVideo\nID                                       : 1\nFormat                                   : AVC\nFormat/Info                              : Advanced Video Codec\nFormat profile                           : &lt;a class=&quot;__cf_email__&quot; href=&quot;/cdn-cgi/l/email-protection&quot; data-cfemail=&quot;3e735f57507e720d100f&quot;&gt;[email&amp;#160;protected]&lt;/a&gt;&lt;script cf-hash='f9e31' type=&quot;text/javascript&quot;&gt;\n/* &lt;![CDATA[ */!function(){try{var t=&quot;currentScript&quot;in document?document.currentScript:function(){for(var t=document.getElementsByTagName(&quot;script&quot;),e=t.length;e--;)if(t[e].getAttribute(&quot;cf-hash&quot;))return t[e]}();if(t&amp;&amp;t.previousSibling){var e,r,n,i,c=t.previousSibling,a=c.getAttribute(&quot;data-cfemail&quot;);if(a){for(e=&quot;&quot;,r=parseInt(a.substr(0,2),16),n=2;a.length-n;n+=2)i=parseInt(a.substr(n,2),16)^r,e+=String.fromCharCode(i);e=document.createTextNode(e),c.parentNode.replaceChild(e,c)}}}catch(u){}}();/* ]]&gt; */&lt;/script&gt;\nFormat settings, CABAC                   : Yes\nFormat settings, ReFrames                : 3 frames\nCodec ID                                 : avc1\nCodec ID/Info                            : Advanced Video Coding\nDuration                                 : 3mn 36s\nBit rate                                 : 1 577 Kbps\nWidth                                    : 1 280 pixels\nHeight                                   : 720 pixels\nDisplay aspect ratio                     : 16:9\nFrame rate mode                          : Variable\nFrame rate                               : 23.976 fps\nMinimum frame rate                       : 23.974 fps\nMaximum frame rate                       : 23.981 fps\nColor space                              : YUV\nChroma subsampling                       : 4:2:0\nBit depth                                : 8 bits\nScan type                                : Progressive\nBits/(Pixel*Frame)                       : 0.071\nStream size                              : 40.8 MiB (92%)\nEncoded date                             : UTC 2015-03-05 01:15:47\nTagged date                              : UTC 2015-03-05 01:15:47\n\nAudio\nID                                       : 2\nFormat                                   : AAC\nFormat/Info                              : Advanced Audio Codec\nFormat profile                           : LC\nCodec ID                                 : 40\nDuration                                 : 3mn 36s\nBit rate mode                            : Variable\nBit rate                                 : 126 Kbps\nChannel(s)                               : 2 channels\nChannel positions                        : Front: L R\nSampling rate                            : 44.1 KHz\nCompression mode                         : Lossy\nStream size                              : 3.25 MiB (7%)\nEncoded date                             : UTC 2015-03-05 01:14:08\nTagged date                              : UTC 2015-03-05 01:14:08\n\nShared By Sbyky\n[IMG]http://yuq.me/users/18/139/0aq32UMZvX.gif[/IMG]\n[IMG]http://yuq.me/users/18/139/bQg62viaEG.gif[/IMG]","torrent":{"xt":"urn:btih:4e5d31cecd28cfb6dc9c1397ebd491e06b4eb2fb","amp;dn":"Jordin+Sparks+Ft.+2+Chainz+-+Double+Tap+%5BMusic+Video%5D+720p+%5BSbyk","amp;tr":["udp%3A%2F%2Ftracker.openbittorrent.com%3A80","udp%3A%2F%2Fopen.demonii.com%3A1337","udp%3A%2F%2Ftracker.coppersurfer.tk%3A6969","udp%3A%2F%2Fexodus.desync.com%3A6969"],"infoHash":"4e5d31cecd28cfb6dc9c1397ebd491e06b4eb2fb","infoHashBuffer":{"type":"Buffer","data":[78,93,49,206,205,40,207,182,220,156,19,151,235,212,145,224,107,78,178,251]},"announce":[],"urlList":[]}}